<svg xmlns="http://www.w3.org/2000/svg" xmlns:v="https://vecta.io/nano" viewBox="0 0 630 660"><style><![CDATA[.B{fill:#4f5a63}.C{fill:#a8b0b2}.D{fill:#446b9b}.E{fill:#020203}]]></style><path d="M144 144c-27 5-37 38-22 59 11 15 36 22 51 33 41 28 69 70 63 122-6 43-36 75-71 98-12 7-27 12-38 21a39 39 0 0 0-6 50c13 20 44 22 60 4 6-8 10-19 15-28 10-16 21-31 34-45 39-41 106-49 152-16 19 15 36 35 48 55 14 23 25 55 59 45 26-8 34-41 17-61-12-15-36-21-52-33-47-35-76-90-53-148 13-31 39-54 67-72 11-7 25-11 35-19 32-28-2-79-40-64-21 9-28 39-41 56-29 41-73 71-125 62-41-6-70-34-93-67-15-23-25-60-60-52z" class="E"/><path d="M140 413a91 91 0 0 0-62 37c-49 64 7 157 86 148a93 93 0 0 0 80-109c-1-5-2-13-9-13-4 0-8 4-8 8 0 17 4 30-2 48a78 78 0 0 1-107 43c-56-28-57-112 1-139 13-6 29-10 43-7 6 1 15 5 19-2 3-6-2-10-7-12-10-3-23-3-34-2z" class="E"/><path d="M465 88a93 93 0 0 0-79 109c1 5 2 13 9 13 4 0 8-4 8-8 0-17-4-30 2-48 16-45 72-65 113-39a78 78 0 0 1-6 135c-11 5-25 9-37 8-6 0-17-5-23-2-9 5-1 14 6 15 89 21 150-96 84-158a96 96 0 0 0-77-25z" class="E"/><path d="M465 413c-6 1-23 5-15 15 4 6 16 1 22 0 14-1 30 3 42 9a78 78 0 0 1-12 142 78 78 0 0 1-102-78c0-6 4-13 3-19-2-5-7-7-12-5-4 3-5 10-5 15-3 15-1 32 4 46a94 94 0 0 0 166 18c41-65-13-154-91-143z" class="E"/><path d="M567 480h1-1m-505 0 1 1-1-1m17 0 1 1-1-1m44 0 1 1-1-1zm103 2v3h1l-1-3zm177 0v3h1l-1-3zm-255 3c-28 6-18 48 10 41 26-6 16-47-10-41z" class="C"/><path d="M243 485h1-1m143 0h1-1zm87 0c-28 6-17 48 10 41 27-6 17-48-10-41z" class="C"/><path d="m142 199 1 1-1-1m20 0 1 1-1-1m24 0-15 16c22 12 42 30 57 50 53 71 16 166-57 206l16 16c12-22 30-42 50-57 71-53 166-16 206 57l16-16c-73-40-110-135-57-206 15-20 35-38 57-50l-16-16c-36 66-118 105-188 68-21-11-38-28-53-46l-16-22z" class="D"/><path d="M147 160c-27 6-16 48 10 41 28-6 18-48-10-41zm325 0c-26 6-16 47 10 41 28-6 18-48-10-41zm-412 3h1-1m17-1 1 1-1-1m41 0 1 1-1-1zm109 1h1-1m175 0h1-1z" class="C"/><path d="M147 87a95 95 0 0 0-78 135c14 31 48 51 82 51 8 0 19 1 26-3 6-4 6-13-1-15-6-1-14 2-20 3a77 77 0 0 1-59-131 78 78 0 0 1 133 58l-3 18c1 5 6 8 11 6s5-9 6-13c2-14 1-29-2-42-12-39-53-72-95-67z" class="E"/></svg>